HIERARCHY
ROOT Hips
{
	OFFSET 0.000000 0.000000 0.000000 
	CHANNELS 6 Xposition Yposition Zposition Zrotation Yrotation Xrotation
	JOINT LeftUpLeg
	{
		OFFSET 1.363060 -1.794630 0.839290 
		CHANNELS 3 Zrotation Yrotation Xrotation
		JOINT LeftLeg
		{
			OFFSET 2.448110 -6.726130 0.000000 
			CHANNELS 3 Zrotation Yrotation Xrotation
			JOINT LeftFoot
			{
				OFFSET 2.562200 -7.039590 0.000000 
				CHANNELS 3 Zrotation Yrotation Xrotation
				JOINT LeftToeBase
				{
					OFFSET 0.157640 -0.433110 2.322550 
					CHANNELS 3 Zrotation Yrotation Xrotation
					End Site
					{
						OFFSET 0.000000 0.000000 0.000000 
					}
				}
			}
		}
	}
	JOINT RightUpLeg
	{
		OFFSET -1.305520 -1.794630 0.839290 
		CHANNELS 3 Zrotation Yrotation Xrotation
		JOINT RightLeg
		{
			OFFSET -2.542530 -6.985550 0.000000 
			CHANNELS 3 Zrotation Yrotation Xrotation
			JOINT RightFoot
			{
				OFFSET -2.568260 -7.056230 0.000000 
				CHANNELS 3 Zrotation Yrotation Xrotation
				JOINT RightToeBase
				{
					OFFSET -0.164730 -0.452590 2.363150 
					CHANNELS 3 Zrotation Yrotation Xrotation
					End Site
					{
						OFFSET 0.000000 0.000000 0.000000 
					}
				}
			}
		}
	}
	JOINT Spine
	{
		OFFSET 0.028270 2.035590 -0.193380 
		CHANNELS 3 Zrotation Yrotation Xrotation
		JOINT Spine1
		{
			OFFSET 0.056720 2.048850 -0.042750 
			CHANNELS 3 Zrotation Yrotation Xrotation
			JOINT Neck1
			{
				OFFSET -0.054170 1.746240 0.172020 
				CHANNELS 3 Zrotation Yrotation Xrotation
				JOINT Head
				{
					OFFSET 0.104070 1.761360 -0.123970 
					CHANNELS 3 Zrotation Yrotation Xrotation
					End Site
					{
						OFFSET 0.000000 0.000000 0.000000 
					}
				}
			}
			JOINT LeftArm
			{
				OFFSET 3.362410 1.200890 -0.311210 
				CHANNELS 3 Zrotation Yrotation Xrotation
				JOINT LeftForeArm
				{
					OFFSET 4.983000 -0.000000 -0.000000 
					CHANNELS 3 Zrotation Yrotation Xrotation
					JOINT LeftHand
					{
						OFFSET 3.483560 -0.000000 -0.000000 
						CHANNELS 3 Zrotation Yrotation Xrotation
						JOINT LeftHandIndex1
						{
							OFFSET 0.715260 -0.000000 -0.000000 
							CHANNELS 3 Zrotation Yrotation Xrotation
							End Site
							{
								OFFSET 0.000000 0.000000 0.000000 
							}
						}
					}
				}
			}
			JOINT RightArm
			{
				OFFSET -3.136600 1.374050 -0.404650 
				CHANNELS 3 Zrotation Yrotation Xrotation
				JOINT RightForeArm
				{
					OFFSET -5.241900 -0.000000 -0.000000 
					CHANNELS 3 Zrotation Yrotation Xrotation
					JOINT RightHand
					{
						OFFSET -3.444170 -0.000000 -0.000000 
						CHANNELS 3 Zrotation Yrotation Xrotation
						JOINT RightHandIndex1
						{
							OFFSET -0.622530 -0.000000 -0.000000 
							CHANNELS 3 Zrotation Yrotation Xrotation
							End Site
							{
								OFFSET 0.000000 0.000000 0.000000 
							}
						}
					}
				}
			}
		}
	}
}
MOTION
Frames: 13
Frame Time: 0.041667
15.898780 17.897585 25.089387 -178.319759 6.636107 -176.000420 -16.516861 0.753506 -22.989143 2.326276 10.317170 29.609950 0.276550 -2.481043 -2.794829 0.530600 -4.667700 -12.963200 23.817603 2.690346 -1.623175 -8.495384 -16.514052 54.152980 1.380085 -16.312509 -7.195131 -0.468900 -4.391800 12.181700 0.248362 1.783438 -0.435619 2.227973 1.229707 5.469076 -1.031239 5.830523 29.604764 2.906300 1.855700 12.541500 -41.846926 8.275222 79.340763 31.874318 -46.406177 -14.179809 0.929237 -0.374555 -4.610777 -7.125000 0.000000 0.000000 79.446491 12.283434 24.425463 -29.812034 41.447924 -10.216029 -0.107425 -0.348122 -17.952226 7.125000 0.000000 0.000000 
15.869636 17.934310 24.931459 -178.984154 6.565298 -176.052213 -17.532391 1.250288 -22.555976 2.226524 10.149448 29.041632 0.300676 -2.787093 -2.905807 0.663600 -5.209700 -14.507700 23.015770 2.778823 -2.863549 -8.875022 -16.799221 55.559699 1.421164 -16.557397 -8.352503 -0.551400 -4.756700 13.216000 0.209638 1.728034 -0.462677 2.499584 1.169593 5.416351 -1.135911 5.881012 29.932587 2.838300 1.885700 12.740000 -42.281617 8.175154 79.184417 31.341134 -46.028640 -13.806893 0.932974 -0.395393 -4.616485 -7.125000 0.000000 0.000000 79.516936 12.019155 24.320506 -29.523968 41.179476 -10.043554 -0.115041 -0.346596 -17.725519 7.125000 0.000000 0.000000 
15.837834 17.931357 24.785642 -179.407543 6.238571 -176.111031 -18.097680 1.041228 -21.434739 2.144105 10.012399 28.579013 0.326660 -2.987706 -3.361846 0.444600 -4.278400 -11.861300 22.506717 2.650888 -4.255292 -9.304826 -17.095811 57.111930 1.415066 -16.481444 -8.971287 -0.644800 -5.136800 14.299200 0.245782 1.647594 -0.712087 2.882892 1.122239 4.403581 -1.084753 5.961206 30.257546 2.886500 1.935900 12.900400 -42.753319 8.604045 79.174337 30.977442 -45.732200 -13.547242 0.925410 -0.373281 -3.619490 -7.125000 0.000000 0.000000 79.480533 10.986187 23.930090 -29.364344 40.947363 -9.918518 -0.120933 -0.347202 -17.327748 7.125000 0.000000 0.000000 
15.801700 17.933129 24.647406 -179.641635 5.992821 -176.201248 -18.491198 0.836101 -20.404026 2.065483 9.885322 28.146383 0.341619 -3.001471 -3.829676 0.353100 -3.817800 -10.564600 22.206225 2.604590 -5.571149 -9.693444 -17.355898 58.495014 1.399946 -16.341629 -8.995017 -0.736300 -5.481800 15.288100 0.288022 1.314164 -0.685454 3.014315 0.948145 4.547810 -1.157456 6.222486 30.080507 2.908200 2.035200 12.748000 -43.199992 9.296567 77.535000 31.670433 -46.309389 -14.106652 0.923297 -0.380295 -1.281068 -7.125000 0.000000 0.000000 79.458886 10.871632 24.281451 -29.027209 40.648920 -9.713972 -0.117508 -0.338930 -17.218743 7.125000 0.000000 0.000000 
15.768815 17.935492 24.510845 -179.840060 6.039641 -176.417447 -18.902046 1.226381 -19.615113 2.009307 9.788112 27.817112 0.363935 -3.137359 -4.212644 0.398900 -4.055000 -11.231400 21.915696 2.756773 -6.696184 -10.046651 -17.578031 59.727904 1.341390 -15.906060 -9.078435 -0.828400 -5.806800 16.224800 0.293716 1.212717 -0.638981 3.051436 0.891971 4.596384 -1.399340 6.325148 30.012425 2.788200 2.080000 12.701000 -43.784060 8.828844 77.231001 30.469971 -45.443078 -13.298256 0.923329 -0.366443 -0.404598 -7.125000 0.000000 0.000000 79.483369 10.682713 24.516866 -28.725452 40.373172 -9.536330 -0.124048 -0.333987 -17.375989 7.125000 0.000000 0.000000 
15.735339 17.939036 24.363551 -179.875572 6.227607 -176.716184 -19.161128 1.735549 -18.785779 1.976609 9.733278 27.629974 0.377191 -3.110211 -4.646953 0.551900 -4.759100 -13.222700 21.774694 2.894557 -7.649404 -10.313588 -17.743673 60.654107 1.319324 -15.722311 -8.889976 -0.691600 -5.316400 14.813200 0.266919 1.272481 -0.570460 2.862032 0.932162 4.680193 -1.414988 6.288344 30.050946 2.759300 2.068700 12.737100 -44.085768 8.615578 76.475879 29.920845 -45.042055 -12.953216 0.917926 -0.341055 0.933630 -7.125000 0.000000 0.000000 79.691980 10.401377 24.408156 -28.495014 40.164340 -9.403330 -0.128569 -0.334364 -17.278472 7.125000 0.000000 0.000000 
15.710823 17.953608 24.237032 179.944784 5.679858 -176.577248 -19.469904 1.543794 -18.478159 1.967350 9.716775 27.562225 0.402738 -3.405049 -4.779495 0.521200 -4.626800 -12.847000 21.581780 2.642311 -9.339162 -10.542015 -17.877998 61.443425 1.326733 -15.766412 -8.662098 -0.414900 -4.134700 11.455900 0.289204 1.039937 -0.717956 2.966682 0.824264 4.119524 -1.169252 6.131553 30.247451 2.883900 1.986600 12.909800 -44.347707 8.802447 75.952208 29.907489 -45.019828 -12.964775 0.906444 -0.336979 1.771310 -7.125000 0.000000 0.000000 79.874650 9.764491 24.089684 -28.328930 39.960730 -9.290370 -0.131472 -0.337548 -17.040990 7.125000 0.000000 0.000000 
15.672030 17.977140 24.074280 179.759498 5.880024 -176.895943 -19.823666 1.658696 -17.577925 1.958534 9.705144 27.514873 0.421275 -3.405069 -5.280488 0.265300 -3.313800 -9.153700 21.257724 2.783816 -10.135671 -10.700056 -17.966821 61.976542 1.214303 -14.964212 -8.715427 -0.249900 -3.216400 8.881800 0.274342 1.078673 -0.748008 2.924988 0.852443 3.847298 -1.144278 6.112088 30.592180 2.908500 1.969000 13.124600 -44.641606 8.943781 75.994557 29.806880 -44.934614 -12.891836 0.907017 -0.339861 1.297009 -7.125000 0.000000 0.000000 79.997255 9.108898 23.974691 -28.065766 39.685583 -9.127441 -0.137518 -0.336085 -16.951742 7.125000 0.000000 0.000000 
15.656670 17.990038 23.957902 179.721770 5.158058 -176.617321 -19.924574 1.278368 -17.398283 1.950925 9.690262 27.454257 0.466072 -3.869320 -5.555360 0.131100 -2.334300 -6.430500 21.283105 2.593650 -11.844497 -10.866311 -18.057794 62.534682 1.121922 -14.291047 -8.890332 -0.158100 -2.562300 7.062300 0.325118 0.707819 -0.882490 3.021499 0.674901 3.472160 -1.338185 6.358688 30.633775 2.795200 2.105900 13.152100 -44.982068 8.996347 76.015036 29.574434 -44.726619 -12.702519 0.903919 -0.314595 0.917395 -7.125000 0.000000 0.000000 80.086347 8.524310 23.929174 -27.824856 39.421129 -8.978468 -0.145038 -0.336737 -17.031235 7.125000 0.000000 0.000000 
15.627921 17.987281 23.817992 179.644387 4.972613 -176.586459 -20.209892 1.148922 -16.805098 1.925240 9.661949 27.340185 0.496566 -3.799182 -6.342568 0.012000 -0.706600 -1.941900 21.124965 2.699299 -13.067181 -10.990093 -18.128616 62.950824 1.020299 -13.532698 -8.909461 -0.171900 -2.670600 7.363000 0.339672 0.544105 -0.863035 2.982145 0.593791 3.614477 -1.355127 6.463912 30.515193 2.786800 2.157200 13.077300 -45.431481 8.995323 75.495820 29.388180 -44.589232 -12.566588 0.902786 -0.285585 1.139983 -7.125000 0.000000 0.000000 80.181843 8.135365 23.971352 -27.660021 39.265544 -8.885310 -0.145293 -0.339339 -17.249672 7.125000 0.000000 0.000000 
15.597891 17.980094 23.678477 179.220445 5.013744 -176.712647 -20.908550 1.201820 -16.102450 1.896593 9.614690 27.180330 0.523174 -3.755732 -6.988889 0.169000 2.648300 7.301100 20.517494 2.952458 -14.228482 -11.108853 -18.195698 63.352886 0.908984 -12.688235 -8.902076 -0.210300 -2.952300 8.146100 0.143650 0.864165 -0.962277 2.490670 0.768303 3.309138 -1.490449 5.739284 30.268250 2.425100 2.040200 12.653000 -44.896540 8.918650 76.392677 29.238665 -44.447286 -12.452264 0.908762 -0.298115 0.846389 -7.125000 0.000000 0.000000 81.021956 6.824425 22.861356 -27.500705 39.088303 -8.784754 -0.150084 -0.346220 -17.089483 7.125000 0.000000 0.000000 
15.571307 17.970543 23.541324 178.760702 5.120278 -176.861484 -21.683083 1.540570 -15.470191 1.867752 9.550368 26.993351 0.531740 -3.628729 -7.389702 0.000200 -0.082300 -0.226300 19.820962 3.237808 -15.405622 -11.206511 -18.256198 63.687906 0.790736 -11.759117 -8.890655 -0.200200 -2.881500 7.948900 -0.404874 2.091700 -1.142965 0.683380 1.441098 2.605601 -1.558267 3.892596 30.167323 1.672500 1.667700 12.213900 -42.655224 7.520981 79.541371 29.075636 -44.177994 -12.291482 0.913488 -0.331741 -0.018527 -7.125000 0.000000 0.000000 83.128053 4.757332 19.568287 -27.394925 38.962686 -8.721107 -0.168883 -0.368610 -16.594414 7.125000 0.000000 0.000000 
15.545215 17.962273 23.401808 178.440712 5.011502 -176.927372 -22.192518 1.769067 -14.851903 1.850811 9.522745 26.879102 0.554971 -3.761304 -7.657914 0.032500 1.163400 3.198500 19.410480 3.316349 -16.507833 -11.265162 -18.289504 63.883771 0.659656 -10.709698 -9.223898 -0.257200 -3.262700 9.011100 -0.241421 1.463663 -1.023419 1.402477 1.093832 3.115135 -1.692656 4.675436 30.310785 1.798500 1.892600 12.435200 -43.935166 7.859719 78.090873 28.724683 -43.963184 -12.067750 0.909910 -0.284280 0.099193 -7.125000 0.000000 0.000000 82.636233 5.057801 20.717174 -26.935030 38.533815 -8.461260 -0.164744 -0.353064 -16.639730 7.125000 0.000000 0.000000 
